<svg height="512" viewBox="0 0 512 512" width="512" xmlns="http://www.w3.org/2000/svg"><g id="Filled_outline" data-name="Filled outline"><path d="m400 144h-6a88.015 88.015 0 0 0 -156.988-78.066 75.993 75.993 0 0 0 -122.334 78.066h-2.678a56 56 0 0 0 -56 56 56 56 0 0 0 56 56h288a56 56 0 0 0 56-56 56 56 0 0 0 -56-56z" fill="#85ccd5"/><rect fill="#348ed8" height="200" rx="16" width="176" x="168" y="96"/><rect fill="#459ce5" height="72" rx="16" width="176" x="168" y="96"/><rect fill="#348ed8" height="64" rx="8" width="96" x="24" y="392"/><path d="m96 488h-48l8-32h32z" fill="#d5d5d3"/><path d="m92 472h-40l4-16h32z" fill="#cececc"/><rect fill="#348ed8" height="64" rx="8" width="96" x="208" y="392"/><path d="m280 488h-48l8-32h32z" fill="#d5d5d3"/><path d="m276 472h-40l4-16h32z" fill="#cececc"/><rect fill="#348ed8" height="64" rx="8" width="96" x="392" y="392"/><path d="m464 488h-48l8-32h32z" fill="#d5d5d3"/><path d="m460 472h-40l4-16h32z" fill="#cececc"/><path d="m155.795 64.1-7.59-14.085a84.016 84.016 0 0 1 86.921 4.467 96.035 96.035 0 0 1 169.8 81.709 64 64 0 0 1 -4.926 127.809h-32v-16h32a48 48 0 1 0 0-96h-6a8 8 0 0 1 -7.453-10.908 80.019 80.019 0 0 0 -142.726-70.967 8 8 0 0 1 -11.975 1.916 68.011 68.011 0 0 0 -76.051-7.941zm-43.795 199.9h32v-16h-32a48 48 0 0 1 0-96h2.68a8 8 0 0 0 7.717-10.108 67.988 67.988 0 0 1 16.013-64.417l-11.666-10.95a84 84 0 0 0 -21.826 69.864 64 64 0 0 0 7.082 127.611zm64-112a8.009 8.009 0 0 0 8 8h144a8.009 8.009 0 0 0 8-8v-40a8.009 8.009 0 0 0 -8-8h-144a8.009 8.009 0 0 0 -8 8v8h-16v-8a24.028 24.028 0 0 1 24-24h144a24.028 24.028 0 0 1 24 24v168a24.028 24.028 0 0 1 -24 24h-144a24.028 24.028 0 0 1 -24-24v-144h16zm160 128v-41.376a23.889 23.889 0 0 1 -8 1.376h-144a23.889 23.889 0 0 1 -8-1.376v41.376a8.009 8.009 0 0 0 8 8h144a8.009 8.009 0 0 0 8-8zm-160-105.376v41.376a8.009 8.009 0 0 0 8 8h144a8.009 8.009 0 0 0 8-8v-41.376a23.889 23.889 0 0 1 -8 1.376h-144a23.889 23.889 0 0 1 -8-1.376zm32 17.376h-16v16h16zm112 0h-96v16h96zm-128 80h16v-16h-16zm32 0h96v-16h-96zm-96 128v48a16.019 16.019 0 0 1 -16 16h-21.754l4 16h9.754v16h-64v-16h9.754l4-16h-21.754a16.019 16.019 0 0 1 -16-16v-48a16.019 16.019 0 0 1 16-16h80a16.019 16.019 0 0 1 16 16zm-54.246 64h-3.508l-4 16h11.508zm38.256-16-.01-48h-80v48zm367.99-24v-24h-80v48h80v-8h16v8a16.019 16.019 0 0 1 -16 16h-21.754l4 16h9.754v16h-64v-16h9.754l4-16h-21.754a16.019 16.019 0 0 1 -16-16v-48a16.019 16.019 0 0 1 16-16h80a16.019 16.019 0 0 1 16 16v24zm-41.754 40-4 16h11.508l-4-16zm-126.246-64v48a16.019 16.019 0 0 1 -16 16h-21.754l4 16h9.754v16h-64v-16h9.754l4-16h-21.754a16.019 16.019 0 0 1 -16-16v-48a16.019 16.019 0 0 1 16-16h80a16.019 16.019 0 0 1 16 16zm-54.246 64h-3.508l-4 16h11.508zm38.256-16-.01-48h-80v48zm151.99-80v-24a8 8 0 0 0 -8-8h-176v-16h-16v16h-176a8 8 0 0 0 -8 8v24h16v-16h168v16h16v-16h168v16z"/></g></svg>