<svg id="Layer_5" enable-background="new 0 0 62 62" height="512" viewBox="0 0 62 62" width="512" xmlns="http://www.w3.org/2000/svg"><g><path d="m20 28h2v2h-2z"/><path d="m16 28h2v2h-2z"/><path d="m24 28h2v2h-2z"/><path d="m26 36h2v2h-2z"/><path d="m30 36h2v2h-2z"/><path d="m22 36h2v2h-2z"/><path d="m24 44h2v2h-2z"/><path d="m20 44h2v2h-2z"/><path d="m16 44h2v2h-2z"/><path d="m28 52h-10c-1.103 0-2 .897-2 2v2c0 1.103.897 2 2 2h10c1.103 0 2-.897 2-2v-2c0-1.103-.897-2-2-2zm-4 2v2h-2v-2zm-6 0h2v2h-2zm8 2v-2h2l.001 2z"/><path d="m43.721 31 .538-1.614c.122-.048.244-.099.366-.153l1.523.762 1.994-1.995h5.858c4.411 0 8-3.589 8-8s-3.589-8-8-8c-.548 0-1.095.058-1.636.173-1.626-4.86-6.161-8.173-11.364-8.173-2.691 0-5.204.881-7.237 2.417-2.567-3.984-6.966-6.417-11.763-6.417-6.253 0-11.657 4.076-13.409 10.009-4.774.215-8.591 4.166-8.591 8.991 0 4.624 3.507 8.441 8 8.941v29.059c0 2.757 2.243 5 5 5h22c2.757 0 5-2.243 5-5v-26zm3.841-5.248-1.809 1.809-1.124-.561-.45.23c-.34.174-.685.318-1.023.427l-.481.156-.396 1.187h-2.279v-3.112c.328.067.662.112 1 .112 2.757 0 5-2.243 5-5s-2.243-5-5-5c-2.458 0-4.496 1.787-4.912 4.127-.351-.078-.713-.127-1.088-.127h-2v-.279l1.187-.395.156-.481c.109-.339.253-.683.427-1.023l.23-.45-.562-1.123 1.809-1.809 1.124.56.45-.23c.34-.174.685-.318 1.023-.427l.481-.156.396-1.187h2.559l.395 1.187.481.156c.339.109.683.253 1.023.427l.45.23 1.123-.562 1.809 1.809-.561 1.124.23.45c.174.34.318.685.427 1.023l.156.481 1.187.396v2.559l-1.187.395-.156.481c-.109.339-.253.683-.427 1.023l-.23.45zm-9.562-4.752c0-1.654 1.346-3 3-3s3 1.346 3 3-1.346 3-3 3c-.413 0-.81-.109-1.184-.272-.29-1.094-.936-2.036-1.814-2.701 0-.009-.002-.018-.002-.027zm-30 4v.92c-3.387-.488-6-3.401-6-6.92 0-3.86 3.14-7 7-7 .054 0 .106.004.159.008l.982.046.19-.807c1.28-5.445 6.079-9.247 11.669-9.247 4.218 0 8.081 2.193 10.254 5.767-1.028 1.097-1.861 2.4-2.435 3.869l1.863.728c1.509-3.866 5.167-6.364 9.318-6.364 4.625 0 8.616 3.141 9.707 7.638l.26 1.074 1.043-.367c.653-.229 1.322-.345 1.99-.345 3.309 0 6 2.691 6 6s-2.691 6-6 6h-4.078l-.688-1.376c.054-.122.105-.244.153-.366l1.613-.537v-5.441l-1.614-.538c-.048-.122-.099-.244-.153-.366l.762-1.523-3.848-3.848-1.523.762c-.122-.054-.244-.105-.366-.153l-.537-1.614h-5.441l-.538 1.614c-.122.048-.244.099-.366.153l-1.523-.762-3.848 3.848.762 1.523c-.054.122-.105.244-.153.366l-1.614.537v1.721h-18c-2.757 0-5 2.243-5 5zm26 7h-20v-6h20zm-20 2h20v6h-20zm0 8h20v6h-20zm0 8h20v10h-20zm24 7c0 1.302-.839 2.402-2 2.816v-33.816c0-1.103-.897-2-2-2h-20c-1.103 0-2 .897-2 2v33.816c-1.161-.414-2-1.514-2-2.816v-32c0-1.654 1.346-3 3-3h22c1.654 0 3 1.346 3 3z"/><path d="m51 56c-1.302 0-2.402.839-2.816 2h-2.184v-5h-4v2h2v5h4.184c.414 1.161 1.514 2 2.816 2 1.654 0 3-1.346 3-3s-1.346-3-3-3zm0 4c-.551 0-1-.449-1-1s.449-1 1-1 1 .449 1 1-.449 1-1 1z"/><path d="m55 50c-1.302 0-2.402.839-2.816 2h-2.184v-3h-8v2h6v3h4.184c.414 1.161 1.514 2 2.816 2 1.654 0 3-1.346 3-3s-1.346-3-3-3zm0 4c-.551 0-1-.449-1-1s.449-1 1-1 1 .449 1 1-.449 1-1 1z"/><path d="m58 39c0-1.654-1.346-3-3-3-1.302 0-2.402.839-2.816 2h-4.184v3h-6v2h8v-3h2.184c.414 1.161 1.514 2 2.816 2 1.654 0 3-1.346 3-3zm-4 0c0-.551.449-1 1-1s1 .449 1 1-.449 1-1 1-1-.449-1-1z"/><path d="m59 43c-1.654 0-3 1.346-3 3s1.346 3 3 3 3-1.346 3-3-1.346-3-3-3zm0 4c-.551 0-1-.449-1-1s.449-1 1-1 1 .449 1 1-.449 1-1 1z"/><path d="m42 45h12v2h-12z"/><path d="m48.184 34c.414 1.161 1.514 2 2.816 2 1.654 0 3-1.346 3-3s-1.346-3-3-3c-1.302 0-2.402.839-2.816 2h-4.184v5h-2v2h4v-5zm2.816-2c.551 0 1 .449 1 1s-.449 1-1 1-1-.449-1-1 .449-1 1-1z"/><path d="m22 6c.601 0 1.199.067 1.779.198l.442-1.95c-.724-.165-1.471-.248-2.221-.248-4.703 0-8.713 3.199-9.752 7.779l1.95.442c.831-3.663 4.039-6.221 7.802-6.221z"/></g></svg>