<svg id="Layer_1" height="512" viewBox="0 0 128 128" width="512" xmlns="http://www.w3.org/2000/svg" data-name="Layer 1"><path d="m121.5 4.75h-115a1.749 1.749 0 0 0 -1.75 1.75v97.31a1.75 1.75 0 0 0 1.75 1.75h31.087v8.5a9.2 9.2 0 0 0 9.184 9.185h34.458a9.2 9.2 0 0 0 9.184-9.185v-8.5h31.087a1.75 1.75 0 0 0 1.75-1.75v-97.31a1.749 1.749 0 0 0 -1.75-1.75zm-113.25 3.5h111.5v10.641h-111.5zm32.837 95.589c0-.01 0-.019 0-.029s0-.02 0-.029v-43.919h45.826v43.919.029s0 .019 0 .029v3.106h-45.826zm.161-47.477a5.691 5.691 0 0 1 5.523-4.362h34.458a5.691 5.691 0 0 1 5.523 4.362zm39.981 63.388h-34.458a5.691 5.691 0 0 1 -5.684-5.685v-3.62h45.826v3.62a5.691 5.691 0 0 1 -5.684 5.685zm9.184-17.69v-44.375a9.2 9.2 0 0 0 -9.184-9.185h-34.458a9.2 9.2 0 0 0 -9.184 9.185v44.375h-29.337v-79.669h111.5v79.669z"/><path d="m82.958 10.547a3.024 3.024 0 1 0 3.024 3.024 3.024 3.024 0 0 0 -3.024-3.024z"/><path d="m94.792 10.547a3.024 3.024 0 1 0 3.023 3.024 3.024 3.024 0 0 0 -3.023-3.024z"/><path d="m106.625 10.547a3.024 3.024 0 1 0 3.023 3.024 3.023 3.023 0 0 0 -3.023-3.024z"/><path d="m64 112a3.1 3.1 0 1 0 3.1 3.1 3.1 3.1 0 0 0 -3.1-3.1z"/><path d="m79.248 69.322a1.609 1.609 0 0 0 -.051-.167 1.807 1.807 0 0 0 -.1-.185c-.022-.038-.039-.079-.064-.116a1.75 1.75 0 0 0 -.487-.487 1.3 1.3 0 0 0 -.116-.063 1.061 1.061 0 0 0 -.352-.149c-.053-.016-.1-.036-.159-.047a1.711 1.711 0 0 0 -.342-.035h-8.287a1.75 1.75 0 0 0 0 3.5h4.066l-21.186 21.187v-4.067a1.75 1.75 0 0 0 -3.5 0v8.291a1.8 1.8 0 0 0 .034.343c.011.054.031.1.047.156a1.673 1.673 0 0 0 .053.17 1.745 1.745 0 0 0 .095.182c.022.039.039.081.065.119a1.774 1.774 0 0 0 .486.487c.04.026.082.043.123.066a1.678 1.678 0 0 0 .178.094c.056.023.116.036.174.054s.1.034.152.045a1.8 1.8 0 0 0 .343.034h8.29a1.75 1.75 0 0 0 0-3.5h-4.066l21.186-21.186v4.066a1.75 1.75 0 0 0 3.5 0v-8.291a1.787 1.787 0 0 0 -.034-.342c-.011-.055-.032-.106-.048-.159z"/></svg>