<?xml version="1.0" encoding="iso-8859-1"?>
<!-- Generator: Adobe Illustrator 19.0.0, SVG Export Plug-In . SVG Version: 6.00 Build 0)  -->
<svg version="1.1" id="Layer_1" xmlns="http://www.w3.org/2000/svg" xmlns:xlink="http://www.w3.org/1999/xlink" x="0px" y="0px"
	 viewBox="0 0 512 512" style="enable-background:new 0 0 512 512;" xml:space="preserve">
<g>
	<g>
		<path d="M482.145,2.182H29.855C13.392,2.182,0,15.575,0,32.037v154.178c0,4.193,3.397,7.59,7.59,7.59s7.59-3.397,7.59-7.59
			v-18.278h481.639v312.025c0,8.091-6.583,14.675-14.675,14.675H29.855c-8.091,0-14.675-6.583-14.675-14.675V223.999
			c0-4.193-3.397-7.59-7.59-7.59S0,219.806,0,223.999v255.964c0,16.463,13.392,29.855,29.855,29.855h452.29
			c16.463,0,29.855-13.392,29.855-29.855V160.346V95.701V32.037C512,15.575,498.608,2.182,482.145,2.182z M496.819,152.756H15.731
			v-49.464h481.088V152.756z M496.819,88.111H15.181V32.037c0-8.091,6.583-14.674,14.675-14.674h452.29
			c8.091,0,14.675,6.583,14.675,14.674V88.111z"/>
	</g>
</g>
<g>
	<g>
		<path d="M454.223,29.967c-12.439,0-22.559,10.12-22.559,22.559s10.12,22.559,22.559,22.559s22.559-10.12,22.559-22.559
			S466.662,29.967,454.223,29.967z M454.223,59.906c-4.068,0-7.379-3.31-7.379-7.379c0-4.068,3.31-7.379,7.379-7.379
			c4.069,0,7.379,3.31,7.379,7.379C461.602,56.595,458.291,59.906,454.223,59.906z"/>
	</g>
</g>
<g>
	<g>
		<path d="M393.091,29.967c-12.439,0-22.559,10.12-22.559,22.559s10.12,22.559,22.559,22.559s22.559-10.12,22.559-22.559
			S405.53,29.967,393.091,29.967z M393.091,59.906c-4.068,0-7.379-3.31-7.379-7.379c0-4.068,3.31-7.379,7.379-7.379
			c4.069,0,7.379,3.31,7.379,7.379C400.469,56.595,397.159,59.906,393.091,59.906z"/>
	</g>
</g>
<g>
	<g>
		<path d="M331.957,29.967c-12.439,0-22.559,10.12-22.559,22.559s10.12,22.559,22.559,22.559c12.439,0,22.559-10.12,22.559-22.559
			S344.396,29.967,331.957,29.967z M331.958,59.906c-4.068,0-7.379-3.31-7.379-7.379c0-4.068,3.309-7.379,7.379-7.379
			s7.379,3.31,7.379,7.379C339.336,56.595,336.026,59.906,331.958,59.906z"/>
	</g>
</g>
<g>
	<g>
		<path d="M258.605,29.967H65.708c-12.439,0-22.559,10.12-22.559,22.559s10.12,22.559,22.559,22.559h192.897
			c12.439,0,22.559-10.12,22.559-22.559S271.044,29.967,258.605,29.967z M258.605,59.906H65.708c-4.069,0-7.379-3.31-7.379-7.379
			c0-4.068,3.309-7.379,7.379-7.379h192.897c4.069,0,7.379,3.31,7.379,7.379C265.984,56.595,262.673,59.906,258.605,59.906z"/>
	</g>
</g>
<g>
	<g>
		<path d="M188.84,264.987c-5.336,0-9.305,4.241-9.305,9.305c0,4.929,3.968,9.307,9.305,9.307c4.928,0,9.171-4.378,9.171-9.307
			C198.011,269.228,193.768,264.987,188.84,264.987z"/>
	</g>
</g>
<g>
	<g>
		<path d="M251.245,264.439c-3.421,0-5.473,4.106-13.685,4.106c-9.444,0-13.413-4.653-13.413-12.592v-10.949
			c0.001-7.936,3.969-12.59,13.276-12.59c8.074,0,10.537,3.831,13.549,3.831c4.241,0,6.979-5.336,6.979-8.622
			c0-5.337-9.031-10.674-21.896-10.674c-20.666,0-29.562,12.317-29.562,28.055v10.949c0,16.012,9.031,28.057,29.697,28.057
			c12.865,0,22.583-5.748,22.583-11.224C258.774,269.366,256.036,264.439,251.245,264.439z"/>
	</g>
</g>
<g>
	<g>
		<path d="M294.76,216.949c-16.288,0-29.697,13.002-29.697,27.782v11.221c0,14.78,13.685,28.057,29.697,28.057
			c15.875,0,29.697-13.413,29.697-28.057v-11.221C324.458,229.539,310.636,216.949,294.76,216.949z M306.803,255.953
			c0,6.434-5.474,12.592-12.042,12.592c-6.706,0-12.044-6.158-12.044-12.592v-11.221c0-6.158,5.339-12.318,12.044-12.318
			c6.568,0,12.042,6.158,12.042,12.318V255.953z"/>
	</g>
</g>
<g>
	<g>
		<path d="M408.071,216.949c-7.936,0-15.875,4.378-20.666,13.685c-2.873-8.074-9.307-13.685-17.105-13.685
			c-9.033,0-15.055,5.063-18.066,10.402v-4.106c-0.001-3.284-3.561-5.474-7.802-5.474c-5.201,0-8.759,2.19-8.759,5.475v53.921
			c0,2.738,3.558,5.611,8.759,5.611c4.789,0,8.895-2.873,8.895-5.611v-32.435c0-8.074,5.339-12.318,10.676-12.318
			c5.748,0,11.222,4.653,11.222,12.318v32.572c0,3.832,4.653,5.474,8.759,5.474c4.378,0,8.896-1.643,8.896-5.474v-32.71
			c0-7.936,5.336-12.318,10.812-12.318c5.473,0,11.085,4.243,11.085,12.454v32.435c0,2.738,4.106,5.611,8.759,5.611
			c4.791,0,8.897-2.873,8.897-5.611v-32.435C432.433,226.938,420.526,216.949,408.071,216.949z"/>
	</g>
</g>
<g>
	<g>
		<path d="M188.84,419.083c-5.336,0-9.305,4.241-9.305,9.305c0,4.929,3.968,9.307,9.305,9.307c4.928,0,9.171-4.378,9.171-9.307
			C198.011,423.324,193.768,419.083,188.84,419.083z"/>
	</g>
</g>
<g>
	<g>
		<path d="M243.582,371.045c-9.169,0-15.738,5.063-18.338,10.402v-4.106c0-3.285-3.56-5.475-7.801-5.475
			c-5.201,0-8.759,2.19-8.759,5.475v53.921c0,2.738,3.558,5.611,8.759,5.611c4.789,0,8.895-2.873,8.895-5.611v-32.435
			c0-7.664,5.613-12.318,11.224-12.318c6.569,0,11.907,6.158,11.907,12.318v32.435c0,3.696,4.653,5.611,8.759,5.611
			c4.378,0,8.895-1.916,8.895-5.611v-32.435C267.121,383.636,256.174,371.045,243.582,371.045z"/>
	</g>
</g>
<g>
	<g>
		<path d="M328.289,418.946c-4.106,0-7.8,5.201-16.833,5.201c-9.579,0-16.012-5.201-16.012-13.139v-2.052h27.782
			c6.158,0,12.729-0.547,12.729-12.18c0-15.193-13.139-25.73-28.194-25.73c-16.696,0-29.972,12.59-29.972,27.372v11.632
			c0,16.833,13.687,28.057,33.12,28.057c14.644,0,24.086-6.706,24.086-11.359C334.995,424.009,332.396,418.946,328.289,418.946z
			 M295.443,394.723c0-6.569,5.748-10.675,11.907-10.675c6.568,0,12.044,4.379,12.044,10.812c0,3.011-1.095,3.694-3.97,3.694
			h-19.981V394.723z"/>
	</g>
</g>
<g>
	<g>
		<path d="M377.003,421.956h-5.336c-5.748,0-7.664-1.916-7.664-7.253V384.73h16.149v0.001c2.875,0,4.518-3.148,4.518-6.432
			c0-3.147-1.643-6.433-4.518-6.433h-16.148v-23.539c0-3.285-4.38-5.475-8.897-5.475c-4.106,0-8.759,2.19-8.759,5.475v66.375
			c0,15.465,8.896,22.171,25.319,22.171h5.336c5.065,0,7.529-3.696,7.529-7.527C384.532,425.651,382.069,421.956,377.003,421.956z"
			/>
	</g>
</g>
<g>
	<g>
		<path d="M133.629,207.911H64.903c-4.193,0-7.59,3.397-7.59,7.59v68.726c0,4.192,3.397,7.59,7.59,7.59h68.726
			c4.193,0,7.59-3.397,7.59-7.59v-68.726C141.22,211.308,137.822,207.911,133.629,207.911z M126.039,276.637H72.493v-53.546h53.546
			V276.637z"/>
	</g>
</g>
<g>
	<g>
		<path d="M133.629,359.717H64.903c-4.193,0-7.59,3.397-7.59,7.59v68.726c0,4.193,3.397,7.59,7.59,7.59h68.726
			c4.193,0,7.59-3.397,7.59-7.59v-68.726C141.22,363.114,137.822,359.717,133.629,359.717z M126.039,428.443H72.493v-53.546h53.546
			V428.443z"/>
	</g>
</g>
<g>
</g>
<g>
</g>
<g>
</g>
<g>
</g>
<g>
</g>
<g>
</g>
<g>
</g>
<g>
</g>
<g>
</g>
<g>
</g>
<g>
</g>
<g>
</g>
<g>
</g>
<g>
</g>
<g>
</g>
</svg>
